<svg xmlns="http://www.w3.org/2000/svg" viewBox="0 0 64 64"><defs><style>.cls-1{fill:#e5c97a;}</style></defs><title>Prancheta 3</title><g id="Camada_4" data-name="Camada 4"><path class="cls-1" d="M61,32c-.36,15.8-12.92,29-29,29A29.28,29.28,0,0,1,3,32,29.27,29.27,0,0,1,32,3C48.08,3,60.64,16.19,61,32c0,1.93,3,1.93,3,0A32.48,32.48,0,0,0,43,2,32,32,0,0,0,4.37,48.15a32.33,32.33,0,0,0,33.51,15.3C53.08,60.65,63.66,47.21,64,32,64,30.07,61,30.07,61,32Z"/><path class="cls-1" d="M28,32H25V27h2.76c0-1,0-2,0-3a10.72,10.72,0,0,1,.23-2,5,5,0,0,1,4.64-4.08c1.76-.15,3.55,0,5.36,0v4.85H35.46A1.49,1.49,0,0,0,34,24.15c0,.92,0,1.85,0,2.85H38.1l-.47,5H34V46H28Z"/></g></svg>