<svg xmlns="http://www.w3.org/2000/svg" viewBox="0 0 64 64"><defs><style>.cls-1{fill:#e5c97a;}</style></defs><title>Prancheta 3 cópia</title><g id="Camada_4" data-name="Camada 4"><path class="cls-1" d="M61,32c-.36,15.8-12.92,29-29,29A29.28,29.28,0,0,1,3,32,29.27,29.27,0,0,1,32,3C48.08,3,60.64,16.19,61,32c0,1.93,3,1.93,3,0A32.48,32.48,0,0,0,43,2,32,32,0,0,0,4.37,48.15a32.33,32.33,0,0,0,33.51,15.3C53.08,60.65,63.66,47.21,64,32,64,30.07,61,30.07,61,32Z"/><path class="cls-1" d="M42,50H22a8,8,0,0,1-8-8V22a8,8,0,0,1,8-8H42a8,8,0,0,1,8,8V42A8,8,0,0,1,42,50ZM17,21.93V42.07A4.93,4.93,0,0,0,21.93,47H42.07A4.93,4.93,0,0,0,47,42.07V21.93A4.93,4.93,0,0,0,42.07,17H21.93A4.93,4.93,0,0,0,17,21.93Z"/><path class="cls-1" d="M31.86,41.57a9.7,9.7,0,1,1,9.7-9.7A9.71,9.71,0,0,1,31.86,41.57Zm0-16.32a6.62,6.62,0,1,0,6.62,6.62A6.63,6.63,0,0,0,31.86,25.25Z"/><path class="cls-1" d="M42.16,23.13a1.54,1.54,0,0,0,0-3.09,1.54,1.54,0,0,0,0,3.09Z"/></g></svg>