<svg xmlns="http://www.w3.org/2000/svg" viewBox="0 0 412.5 208"><defs><style>.cls-1{fill:#e5c97a;}</style></defs><title>Prancheta 2</title><g id="lineart"><path class="cls-1" d="M130.92,31.31C100.26,19.89,64.63,29.63,44,55c-20.49,25.16-23.15,61.5-6.24,89.26a76.64,76.64,0,0,0,18.52,20.68,1.24,1.24,0,0,0,1,.75A78.33,78.33,0,0,0,119.39,180c35.95-7.19,61.79-39.58,62.11-76C181.21,71.84,161.18,42.58,130.92,31.31Zm-12.33-.38a73.22,73.22,0,0,1,23.64,9.24A69,69,0,0,1,134,52.73a36.37,36.37,0,0,0-8.42-9.32c-10.3-7.88-25.84-4.23-35.46,3.07-1.06.81-.89,2.89.76,2.8q3.85-.65,4.81,4.05a1.66,1.66,0,0,0,0,.23C93,55.79,87.88,61.64,87.93,62c-7.8,8.71-11.12,20.32-10.43,32a1.53,1.53,0,0,0,1.1,1.45,4.21,4.21,0,0,1,2.77,1.65L74.8,100l-5-8.21L47.63,55.36C64.94,35.48,92.25,25.64,118.59,30.92ZM98.79,53.48c-.06-.32-.16-.65-.22-.95a9.51,9.51,0,0,0-1-3A6.69,6.69,0,0,0,96.32,48c-.18-.16-1.36-1.21-1.59-1.07,9.18-5.52,21.85-7.57,30.32-.11,9.78,8.62,13.85,22.67,15.2,35.36a5.81,5.81,0,0,0-3.6.34C125.71,69.94,109,62.34,92.53,60.64a62.27,62.27,0,0,1,5.85-5.43A1.61,1.61,0,0,0,98.79,53.48ZM82.48,99.86a30.32,30.32,0,0,0,.75,3A15.6,15.6,0,0,0,88,110a14.53,14.53,0,0,0,3.86,2.2,10.14,10.14,0,0,1-6.15,5.26,55.49,55.49,0,0,1-3.21-4.76l-6.19-10.17ZM33.63,79.65c4.68,9.57,8.88,19.47,12.76,29.43A74.91,74.91,0,0,1,30.07,112,75.45,75.45,0,0,1,33.63,79.65Zm22.79,81.6a72.89,72.89,0,0,1-26-46.32,78.38,78.38,0,0,0,17-3.05q.88,2.3,1.74,4.6C54.65,131.06,57.38,145.75,56.41,161.25ZM64.47,167q-2.68-1.66-5.23-3.56c1.41-16.58-1.35-32.27-7.14-47.79A411,411,0,0,0,35.3,76.24a1.51,1.51,0,0,0-.27-.37A71.43,71.43,0,0,1,45.6,57.8c12.17,20,24.14,40.14,36.53,60,4.24,6.81,10.82,11.13,18.85,11.64l1.58,4c.71,1.77,3.61,1,2.89-.8l-2-5a1.57,1.57,0,0,0-1.45-1.1,19,19,0,0,1-14.2-6.57,13.19,13.19,0,0,0,7-6.87,20.55,20.55,0,0,0,9.56-.61c1.84-.56,1.06-3.45-.8-2.89a16.5,16.5,0,0,1-8.61.35,1.7,1.7,0,0,0-1.18-.35,12.36,12.36,0,0,1-8.18-9.15c-.94-3.9-1.21-6.47-5.17-7.6-.38-10.75,2.78-21.38,10.22-29.33,17.92,1.39,36.72,10.23,47,25.27,1.09,1.58,3.69.08,2.59-1.51-.52-.76-1.08-1.49-1.65-2.23a2.71,2.71,0,0,1,1.92.34,1.51,1.51,0,0,0,1.13,1c1.31,1.7,1.81,4.51,1.08,6.1-1.55,3.35-5.9,3.84-8.89,2.17-1.69-.94-3.2,1.65-1.51,2.59a10.42,10.42,0,0,0,5.94,1.25c-3.21,2.8-8.22,2-11.46-1.35a7.76,7.76,0,0,0,.57-1.12,9.3,9.3,0,0,0-.76-8.08,17.82,17.82,0,0,1,3.28,2.11c1.5,1.19,3.64-.92,2.12-2.12-3-2.38-6.37-4.22-10.15-3.46-9.07,1.83-15.88-3.62-15.91-13a1.5,1.5,0,0,0-3,0c0,6.09,2.55,12,8.13,15a14.61,14.61,0,0,0,9.07,1.46,17.29,17.29,0,0,0,2.07-.59,7,7,0,0,1,2.7,5.88,4.78,4.78,0,0,1-6.57,4.33,1.51,1.51,0,0,0-1.85,1,5.75,5.75,0,0,1-5.55,4.9c-1.93,0-1.93,3,0,3a8.86,8.86,0,0,0,5-1.61,1.28,1.28,0,0,0,1,.26h0A16.57,16.57,0,0,0,125,118.45a16.59,16.59,0,0,0-3.17,1.76,42.43,42.43,0,0,0-3.33,3.2c-1.87,1.65-3.78,1.93-6.09,2.54a1.48,1.48,0,0,0-1,1l-.85,4.61c-.35,1.89,2.54,2.7,2.89.8.19-1,.12-3.11.72-3.89.28-.37,3.05-.44,4.38-1.17,2.37-1.28,3.63-3.91,6-5.33,3.47-2.07,8.25-2.75,12-1,6.89,3.21,7.55,11.42,3.82,17.09a70.48,70.48,0,0,1-9.52,11.59C113.69,166.56,88.47,172.83,65.25,167A1.48,1.48,0,0,0,64.47,167Zm56.4-66.15a9.72,9.72,0,0,1-2.25.94,8.55,8.55,0,0,0,.44-1A7.44,7.44,0,0,0,120.87,100.88ZM155,158.18A72.93,72.93,0,0,1,129.5,174a75.06,75.06,0,0,1-56.71-2.53c22.93,3,46.55-4.85,62.51-22.07,1.76-1.89,3.6-3.93,5.26-6.09a37.83,37.83,0,0,1-29,27.22c-1.89.39-1.09,3.28.8,2.89a40.73,40.73,0,0,0,32.24-36.21,6.58,6.58,0,0,1,1.34,1.11c.36.42.55.63.64.72-.1-.07-.27-.13-.18.33a13.92,13.92,0,0,1-.31,3.73,70.3,70.3,0,0,1-5.43,20.12c-.76,1.75,1.82,3.28,2.59,1.51a76.08,76.08,0,0,0,5.12-16.69,18.11,18.11,0,0,1,5.42,1.11,20.82,20.82,0,0,1,1.16,9S155,158.18,155,158.18Zm1.45-10.58c-1.21-2.07-4.89-2.49-7.55-2.56.12-.89.23-1.79.32-2.7.5-5.22-.19-5.49-3.82-8.17a13.67,13.67,0,0,0-1.66-10.75c-3-5-9.13-7-14.63-6.16-.2,0-.39.09-.59.13a1.26,1.26,0,0,0-.74-.88,13.57,13.57,0,0,1-7.84-11.85s0-.08,0-.13a12.89,12.89,0,0,0,6.07-4.15c5.43,4.32,13.87,3.86,17-3.24a1.65,1.65,0,0,0,.11-.4,7.71,7.71,0,0,0,3.06-5A9,9,0,0,0,143.41,84c-.82-9.43-3-19.88-7.83-28.58a71.38,71.38,0,0,0,9.18-13.67A75.8,75.8,0,0,1,178.5,104a76.09,76.09,0,0,1-20.4,51.05A15.77,15.77,0,0,0,156.45,147.6Z"/></g><g id="Camada_4" data-name="Camada 4"><path class="cls-1" d="M224.76,51.9a1.28,1.28,0,0,0-.62-.76,1.93,1.93,0,0,0-1-.26,1.56,1.56,0,0,0-1.58,1l-14,35.55a2.51,2.51,0,0,0-.19,1,3.49,3.49,0,0,0,.51,1.78,3.54,3.54,0,0,0,1.41,1.35l.25.13,5-13h17.24l4.85,13,.25-.11a3.2,3.2,0,0,0,1.43-1.3,3.6,3.6,0,0,0,.51-1.83,2.66,2.66,0,0,0-.19-1Zm5.83,23.62H215.75l7.38-19.11Z"/><path class="cls-1" d="M261,62.73a4.91,4.91,0,0,0-2.59-.65,10.58,10.58,0,0,0-7.81,3.56V62.08h-.25c-1.81,0-2.77,1-2.77,3V91.58h.25c1.85,0,2.83-1.05,2.83-3v-17a6.24,6.24,0,0,1,.92-3.29,6.74,6.74,0,0,1,2.51-2.4,7.94,7.94,0,0,1,5.57-.67,6.53,6.53,0,0,1,1.78.59l.2.11.13-.19a2,2,0,0,0-.75-2.93Z"/><path class="cls-1" d="M282.06,87.63l-.22.14a6.7,6.7,0,0,1-1.62.7,6,6,0,0,1-1.66.27,4.08,4.08,0,0,1-3.09-1,5,5,0,0,1-.91-3.41V65.55h4.73A2.56,2.56,0,0,0,282,62.83v-.25h-7.45v-8.9h-.25a2.71,2.71,0,0,0-2.09.81,3.2,3.2,0,0,0-.74,2.24v5.85h-1.82a2.89,2.89,0,0,0-2.08.71,2.65,2.65,0,0,0-.75,2v.25h4.65V84.39a7.37,7.37,0,0,0,1.81,5.33,7,7,0,0,0,5.22,1.87,5.14,5.14,0,0,0,2.74-.71,2.13,2.13,0,0,0,1.21-1.78,2.49,2.49,0,0,0-.26-1.24Z"/><path class="cls-1" d="M311,67.12a10.49,10.49,0,0,0-4.07-3.7,12.22,12.22,0,0,0-5.71-1.34,12.05,12.05,0,0,0-5.69,1.34,10.61,10.61,0,0,0-4,3.67,9.36,9.36,0,0,0-1.5,5.15v9.24a9.42,9.42,0,0,0,3.11,7.33,11.73,11.73,0,0,0,8.12,2.78,13.59,13.59,0,0,0,5.22-1,10.91,10.91,0,0,0,4-2.72A5.43,5.43,0,0,0,312,84.17a2.72,2.72,0,0,0-2.25-2.43l-.27,0V82a6,6,0,0,1-2.18,4.9,9.41,9.41,0,0,1-6.08,1.79,8.82,8.82,0,0,1-6-1.9A6.67,6.67,0,0,1,293,81.53V77.81h17.89a1.71,1.71,0,0,0,1.54-1.54v-4A9.51,9.51,0,0,0,311,67.12Zm-1.58,5.17v2.55H293V72.29a6.74,6.74,0,0,1,2.24-5.22,8.51,8.51,0,0,1,5.91-2,8.61,8.61,0,0,1,5.94,2A6.7,6.7,0,0,1,309.38,72.29Z"/><path class="cls-1" d="M229.54,152.52H210.42V115.4h-.25a3,3,0,0,0-2.28.89,3.45,3.45,0,0,0-.82,2.44V154a1.5,1.5,0,0,0,.5,1.14,1.71,1.71,0,0,0,1.21.46h23.77v-.25C232.54,153.5,231.5,152.52,229.54,152.52Z"/><path class="cls-1" d="M242.68,129.76V156.1h.25a2.79,2.79,0,0,0,2.14-.81,3.2,3.2,0,0,0,.74-2.24V126.59h-.25C243.67,126.59,242.68,127.69,242.68,129.76Z"/><path class="cls-1" d="M244.21,115.4a2.69,2.69,0,0,0-2,.86,2.88,2.88,0,0,0,0,4,2.69,2.69,0,0,0,2,.86,2.75,2.75,0,0,0,2.06-.86,2.87,2.87,0,0,0-2.06-4.9Z"/><path class="cls-1" d="M277.24,129.17a12.22,12.22,0,0,0-8.06-2.58,10.91,10.91,0,0,0-5.42,1.4,15.65,15.65,0,0,0-2.79,2V115.4h-.25c-1.85,0-2.83,1-2.83,3V156.1h.25a2.67,2.67,0,0,0,2.18-.88,4,4,0,0,0,.7-2.5,11.25,11.25,0,0,0,8,3.37,12.55,12.55,0,0,0,8.25-2.55,8.71,8.71,0,0,0,3.09-7.05V136.14A8.64,8.64,0,0,0,277.24,129.17Zm-2.06,22.29a9.3,9.3,0,0,1-6.06,1.79,9.58,9.58,0,0,1-4.07-.87,7.67,7.67,0,0,1-3-2.36,5.24,5.24,0,0,1-1.1-3.18v-11a5.08,5.08,0,0,1,1.12-3.12,7.88,7.88,0,0,1,3-2.36,9.78,9.78,0,0,1,4.1-.87,9,9,0,0,1,5.94,1.82,6,6,0,0,1,2.15,4.82v10.47A6,6,0,0,1,275.19,151.46Z"/><path class="cls-1" d="M307,127.94a12.21,12.21,0,0,0-5.71-1.34,12,12,0,0,0-5.69,1.34,10.61,10.61,0,0,0-4,3.67,9.36,9.36,0,0,0-1.5,5.15V146a9.42,9.42,0,0,0,3.11,7.33,11.73,11.73,0,0,0,8.12,2.78,13.59,13.59,0,0,0,5.22-1,10.91,10.91,0,0,0,4-2.72,5.43,5.43,0,0,0,1.55-3.67,2.72,2.72,0,0,0-2.25-2.43l-.27,0v.27a6,6,0,0,1-2.18,4.9,9.41,9.41,0,0,1-6.08,1.79,8.82,8.82,0,0,1-6-1.9,6.67,6.67,0,0,1-2.13-5.24v-3.73H311a1.71,1.71,0,0,0,1.54-1.54v-4a9.51,9.51,0,0,0-1.5-5.17A10.49,10.49,0,0,0,307,127.94Zm2.49,8.87v2.55H293.12v-2.55a6.74,6.74,0,0,1,2.24-5.22,8.51,8.51,0,0,1,5.91-2,8.61,8.61,0,0,1,5.94,2A6.7,6.7,0,0,1,309.48,136.81Z"/><path class="cls-1" d="M335.39,127.25a4.91,4.91,0,0,0-2.59-.65,10.58,10.58,0,0,0-7.81,3.56v-3.56h-.25c-1.81,0-2.77,1-2.77,3V156.1h.25c1.85,0,2.83-1.05,2.83-3V136a6.23,6.23,0,0,1,.92-3.29,6.75,6.75,0,0,1,2.51-2.4,7.94,7.94,0,0,1,5.57-.67,6.5,6.5,0,0,1,1.78.59l.2.11.13-.19a2,2,0,0,0-.75-2.93Z"/><path class="cls-1" d="M357.24,152.14l-.22.14a6.7,6.7,0,0,1-1.62.7,6,6,0,0,1-1.66.27,4.08,4.08,0,0,1-3.09-1,5,5,0,0,1-.91-3.41V130.06h4.73a2.56,2.56,0,0,0,2.71-2.71v-.25h-7.45v-8.9h-.25a2.71,2.71,0,0,0-2.09.81,3.2,3.2,0,0,0-.74,2.24v5.85h-1.82a2.89,2.89,0,0,0-2.08.71,2.65,2.65,0,0,0-.75,2v.25h4.65v18.84a7.37,7.37,0,0,0,1.81,5.33,7,7,0,0,0,5.22,1.87,5.14,5.14,0,0,0,2.74-.71,2.13,2.13,0,0,0,1.21-1.78,2.49,2.49,0,0,0-.26-1.24Z"/><path class="cls-1" d="M383.86,129.24a11,11,0,0,0-7.73-2.64,14.6,14.6,0,0,0-4.87.85,12.19,12.19,0,0,0-4,2.2,3.89,3.89,0,0,0-1.6,2.85,3,3,0,0,0,.33,1.31A3.89,3.89,0,0,0,367,135l.26.23.14-.31c1.59-3.58,4.56-5.39,8.84-5.39a8.12,8.12,0,0,1,5.6,1.75,6.41,6.41,0,0,1,1.93,5v3.59a11.66,11.66,0,0,0-8.26-3.05,12.15,12.15,0,0,0-8.2,2.61,8.89,8.89,0,0,0-3,7,8.75,8.75,0,0,0,3.08,7,12.11,12.11,0,0,0,8.09,2.61,12.37,12.37,0,0,0,8.26-3.17v3.17h.25a2.71,2.71,0,0,0,2.09-.81,3.2,3.2,0,0,0,.74-2.24V136.36A9.25,9.25,0,0,0,383.86,129.24Zm-14.34,12.39a8.89,8.89,0,0,1,5.83-1.76,9.86,9.86,0,0,1,6.26,1.79,5.88,5.88,0,0,1,2.23,4.84,5.82,5.82,0,0,1-2.31,4.81,10.1,10.1,0,0,1-6.34,1.82,8.56,8.56,0,0,1-5.72-1.76,6.1,6.1,0,0,1-2-4.88A6,6,0,0,1,369.52,141.62Z"/></g></svg>